<svg width="1024" height="1024" viewBox="0 0 1024 1024" fill="none" xmlns="http://www.w3.org/2000/svg">
<rect width="1024" height="1024" rx="200" fill="white"/>
<path d="M301.303 208.608C308.455 180.039 334.128 160 363.578 160V160C405.35 160 435.996 199.262 425.852 239.784L281.52 816.392C274.369 844.961 248.696 865 219.246 865V865C177.474 865 146.828 825.738 156.971 785.216L301.303 208.608Z" fill="#005AF5"/>
<path d="M521.892 208.608C529.043 180.039 554.716 160 584.166 160V160C625.938 160 656.584 199.262 646.441 239.784L502.108 816.392C494.957 844.961 469.284 865 439.834 865V865C398.062 865 367.416 825.738 377.559 785.216L521.892 208.608Z" fill="#005AF5"/>
<path d="M742.48 208.608C749.631 180.039 775.304 160 804.754 160V160C846.526 160 877.172 199.262 867.029 239.784L722.697 816.392C715.545 844.961 689.872 865 660.422 865V865C618.65 865 588.004 825.738 598.147 785.216L742.48 208.608Z" fill="#005AF5"/>
</svg>
