<svg width="1024" height="1024" viewBox="0 0 1024 1024" fill="none" xmlns="http://www.w3.org/2000/svg">
<path d="M273.222 167.114C281.319 134.723 310.422 112 343.81 112C391.146 112 425.879 156.485 414.398 202.408L250.778 856.886C242.681 889.277 213.578 912 180.19 912C132.854 912 98.1213 867.515 109.602 821.592L273.222 167.114Z" fill="#005AF5"/>
<path d="M523.222 167.114C531.319 134.723 560.422 112 593.81 112C641.146 112 675.879 156.485 664.398 202.408L500.778 856.886C492.681 889.277 463.578 912 430.19 912C382.854 912 348.121 867.515 359.602 821.592L523.222 167.114Z" fill="#005AF5"/>
<path d="M773.222 167.114C781.319 134.723 810.422 112 843.81 112C891.146 112 925.879 156.485 914.398 202.408L750.778 856.886C742.681 889.277 713.578 912 680.19 912C632.854 912 598.121 867.515 609.602 821.592L773.222 167.114Z" fill="#005AF5"/>
</svg>
