<svg width="100" height="100" viewBox="0 0 100 100" fill="none" xmlns="http://www.w3.org/2000/svg">
<path d="M37.7512 71.9743C37.7512 72.2721 37.4081 72.5103 36.9754 72.5103C36.4831 72.5549 36.1399 72.3167 36.1399 71.9743C36.1399 71.6765 36.4831 71.4383 36.9157 71.4383C37.3633 71.3937 37.7512 71.6319 37.7512 71.9743ZM33.1113 71.3043C33.0069 71.6021 33.3052 71.9445 33.7528 72.0338C34.1407 72.1827 34.5883 72.0338 34.6778 71.7361C34.7673 71.4383 34.4839 71.0959 34.0363 70.9619C33.6484 70.8577 33.2157 71.0066 33.1113 71.3043ZM39.7056 71.0512C39.273 71.1554 38.9746 71.4383 39.0194 71.7807C39.0641 72.0785 39.452 72.2721 39.8996 72.1678C40.3323 72.0636 40.6306 71.7807 40.5859 71.483C40.5411 71.2001 40.1383 71.0066 39.7056 71.0512ZM49.5226 14C28.8294 14 13 29.6772 13 50.327C13 66.8379 23.4137 80.9667 38.2883 85.9393C40.198 86.2818 40.8694 85.1056 40.8694 84.1379C40.8694 83.2148 40.8246 78.1231 40.8246 74.9966C40.8246 74.9966 30.381 77.2298 28.1879 70.5599C28.1879 70.5599 26.4871 66.2275 24.0403 65.1109C24.0403 65.1109 20.6238 62.7734 24.279 62.8181C24.279 62.8181 27.994 63.1159 30.0379 66.6592C33.3052 72.406 38.7806 70.7535 40.9141 69.7709C41.2573 67.3888 42.227 65.7362 43.3012 64.7536C34.9613 63.8305 26.5468 62.6246 26.5468 48.3022C26.5468 44.208 27.6806 42.1534 30.0677 39.5331C29.6798 38.5654 28.4117 34.5754 30.4556 29.4241C33.5738 28.4564 40.75 33.4439 40.75 33.4439C43.7339 32.6101 46.9415 32.1784 50.1194 32.1784C53.2972 32.1784 56.5048 32.6101 59.4887 33.4439C59.4887 33.4439 66.6649 28.4415 69.7831 29.4241C71.827 34.5903 70.5589 38.5654 70.171 39.5331C72.5581 42.1683 74.0202 44.2229 74.0202 48.3022C74.0202 62.6692 65.2327 63.8156 56.8927 64.7536C58.2653 65.9297 59.429 68.1629 59.429 71.6616C59.429 76.6789 59.3843 82.8873 59.3843 84.1081C59.3843 85.0758 60.0706 86.252 61.9653 85.9096C76.8847 80.9667 87 66.8379 87 50.327C87 29.6772 70.2157 14 49.5226 14ZM27.5016 65.3491C27.3077 65.498 27.3524 65.8404 27.606 66.1233C27.8448 66.3615 28.1879 66.4657 28.3819 66.2721C28.5758 66.1233 28.531 65.7808 28.2774 65.498C28.0387 65.2598 27.6956 65.1555 27.5016 65.3491ZM25.8903 64.1431C25.7859 64.3367 25.9351 64.5749 26.2335 64.7238C26.4722 64.8727 26.7706 64.828 26.875 64.6196C26.9794 64.426 26.8302 64.1878 26.5319 64.0389C26.2335 63.9496 25.9948 63.9943 25.8903 64.1431ZM30.7242 69.4433C30.4855 69.6369 30.575 70.0835 30.9181 70.3664C31.2613 70.7088 31.694 70.7535 31.8879 70.5153C32.0819 70.3217 31.9923 69.8751 31.694 69.5922C31.3657 69.2498 30.9181 69.2051 30.7242 69.4433ZM29.0234 67.2548C28.7847 67.4036 28.7847 67.7907 29.0234 68.1332C29.2621 68.4756 29.6649 68.6245 29.8589 68.4756C30.0976 68.282 30.0976 67.895 29.8589 67.5525C29.65 67.2101 29.2621 67.0612 29.0234 67.2548Z" fill="#162A4C"/>
</svg>
