<svg width="1000" height="300" viewBox="0 0 1000 300" fill="none" xmlns="http://www.w3.org/2000/svg">
<g clip-path="url(#clip0_41_3)">
<path d="M73.695 239.12C69.2783 239.12 65.3917 237.972 62.035 235.675C58.855 233.378 56.205 229.845 54.085 225.075L11.95 127.29C10.36 123.403 9.74167 119.782 10.095 116.425C10.625 113.068 12.215 110.418 14.865 108.475C17.6917 106.355 21.49 105.295 26.26 105.295C30.3233 105.295 33.5917 106.267 36.065 108.21C38.5383 109.977 40.7467 113.422 42.69 118.545L78.465 207.85H70.515L107.35 118.28C109.293 113.333 111.502 109.977 113.975 108.21C116.625 106.267 120.158 105.295 124.575 105.295C128.462 105.295 131.553 106.355 133.85 108.475C136.147 110.418 137.56 113.068 138.09 116.425C138.62 119.605 138.002 123.138 136.235 127.025L93.305 225.075C91.3617 229.845 88.7117 233.378 85.355 235.675C82.175 237.972 78.2883 239.12 73.695 239.12ZM177.401 238.855C172.101 238.855 168.038 237.265 165.211 234.085C162.384 230.905 160.971 226.488 160.971 220.835V123.58C160.971 117.75 162.384 113.333 165.211 110.33C168.038 107.15 172.101 105.56 177.401 105.56C182.701 105.56 186.764 107.15 189.591 110.33C192.594 113.333 194.096 117.75 194.096 123.58V220.835C194.096 226.488 192.683 230.905 189.856 234.085C187.029 237.265 182.878 238.855 177.401 238.855ZM177.401 80.915C171.218 80.915 166.359 79.4133 162.826 76.41C159.469 73.23 157.791 68.9017 157.791 63.425C157.791 57.7717 159.469 53.4433 162.826 50.44C166.359 47.4367 171.218 45.935 177.401 45.935C183.761 45.935 188.619 47.4367 191.976 50.44C195.333 53.4433 197.011 57.7717 197.011 63.425C197.011 68.9017 195.333 73.23 191.976 76.41C188.619 79.4133 183.761 80.915 177.401 80.915ZM426.068 239.65C414.585 239.65 404.957 237.707 397.183 233.82C389.587 229.933 383.933 224.28 380.223 216.86C376.513 209.263 374.658 199.9 374.658 188.77V132.325H360.878C356.638 132.325 353.37 131.265 351.073 129.145C348.777 126.848 347.628 123.757 347.628 119.87C347.628 115.807 348.777 112.715 351.073 110.595C353.37 108.475 356.638 107.415 360.878 107.415H374.658V83.3C374.658 77.8233 376.072 73.6717 378.898 70.845C381.902 68.0183 386.053 66.605 391.353 66.605C396.653 66.605 400.717 68.0183 403.543 70.845C406.37 73.6717 407.783 77.8233 407.783 83.3V107.415H435.873C440.113 107.415 443.382 108.475 445.678 110.595C447.975 112.715 449.123 115.807 449.123 119.87C449.123 123.757 447.975 126.848 445.678 129.145C443.382 131.265 440.113 132.325 435.873 132.325H407.783V186.915C407.783 195.395 409.638 201.755 413.348 205.995C417.058 210.235 423.065 212.355 431.368 212.355C434.372 212.355 437.022 212.09 439.318 211.56C441.615 211.03 443.647 210.677 445.413 210.5C447.533 210.323 449.3 211.03 450.713 212.62C452.127 214.033 452.833 217.037 452.833 221.63C452.833 225.163 452.215 228.343 450.978 231.17C449.918 233.82 447.887 235.675 444.883 236.735C442.587 237.442 439.583 238.06 435.873 238.59C432.163 239.297 428.895 239.65 426.068 239.65ZM526.214 239.65C512.787 239.65 501.127 236.912 491.234 231.435C481.34 225.958 473.655 218.185 468.179 208.115C462.702 197.868 459.964 185.855 459.964 172.075C459.964 161.652 461.465 152.377 464.469 144.25C467.649 135.947 472.154 128.88 477.984 123.05C483.814 117.043 490.792 112.538 498.919 109.535C507.045 106.355 516.144 104.765 526.214 104.765C539.64 104.765 551.3 107.503 561.194 112.98C571.087 118.457 578.772 126.23 584.249 136.3C589.725 146.37 592.464 158.295 592.464 172.075C592.464 182.498 590.874 191.862 587.694 200.165C584.69 208.468 580.274 215.623 574.444 221.63C568.614 227.46 561.635 231.965 553.509 235.145C545.382 238.148 536.284 239.65 526.214 239.65ZM526.214 214.475C532.75 214.475 538.492 212.885 543.439 209.705C548.385 206.525 552.184 201.843 554.834 195.66C557.66 189.3 559.074 181.438 559.074 172.075C559.074 157.942 556.07 147.43 550.064 140.54C544.057 133.473 536.107 129.94 526.214 129.94C519.677 129.94 513.935 131.53 508.989 134.71C504.042 137.713 500.155 142.395 497.329 148.755C494.679 154.938 493.354 162.712 493.354 172.075C493.354 186.032 496.357 196.632 502.364 203.875C508.37 210.942 516.32 214.475 526.214 214.475ZM636.764 239.12C631.287 239.12 627.047 237.707 624.044 234.88C621.217 231.877 619.804 227.637 619.804 222.16V121.99C619.804 116.513 621.217 112.362 624.044 109.535C626.871 106.708 630.846 105.295 635.969 105.295C641.092 105.295 645.067 106.708 647.894 109.535C650.721 112.362 652.134 116.513 652.134 121.99V138.685H649.484C651.957 128.085 656.816 120.047 664.059 114.57C671.302 109.093 680.931 105.825 692.944 104.765C696.654 104.412 699.569 105.383 701.689 107.68C703.986 109.8 705.311 113.157 705.664 117.75C706.017 122.167 704.957 125.788 702.484 128.615C700.187 131.265 696.654 132.855 691.884 133.385L686.054 133.915C675.277 134.975 667.151 138.332 661.674 143.985C656.197 149.462 653.459 157.235 653.459 167.305V222.16C653.459 227.637 652.046 231.877 649.219 234.88C646.392 237.707 642.241 239.12 636.764 239.12ZM780.603 239.65C767.177 239.65 755.517 236.912 745.623 231.435C735.73 225.958 728.045 218.185 722.568 208.115C717.092 197.868 714.353 185.855 714.353 172.075C714.353 161.652 715.855 152.377 718.858 144.25C722.038 135.947 726.543 128.88 732.373 123.05C738.203 117.043 745.182 112.538 753.308 109.535C761.435 106.355 770.533 104.765 780.603 104.765C794.03 104.765 805.69 107.503 815.583 112.98C825.477 118.457 833.162 126.23 838.638 136.3C844.115 146.37 846.853 158.295 846.853 172.075C846.853 182.498 845.263 191.862 842.083 200.165C839.08 208.468 834.663 215.623 828.833 221.63C823.003 227.46 816.025 231.965 807.898 235.145C799.772 238.148 790.673 239.65 780.603 239.65ZM780.603 214.475C787.14 214.475 792.882 212.885 797.828 209.705C802.775 206.525 806.573 201.843 809.223 195.66C812.05 189.3 813.463 181.438 813.463 172.075C813.463 157.942 810.46 147.43 804.453 140.54C798.447 133.473 790.497 129.94 780.603 129.94C774.067 129.94 768.325 131.53 763.378 134.71C758.432 137.713 754.545 142.395 751.718 148.755C749.068 154.938 747.743 162.712 747.743 172.075C747.743 186.032 750.747 196.632 756.753 203.875C762.76 210.942 770.71 214.475 780.603 214.475ZM924.076 239.12C919.659 239.12 915.773 237.972 912.416 235.675C909.236 233.378 906.586 229.845 904.466 225.075L862.331 127.29C860.741 123.403 860.123 119.782 860.476 116.425C861.006 113.068 862.596 110.418 865.246 108.475C868.073 106.355 871.871 105.295 876.641 105.295C880.704 105.295 883.973 106.267 886.446 108.21C888.919 109.977 891.128 113.422 893.071 118.545L928.846 207.85H920.896L957.731 118.28C959.674 113.333 961.883 109.977 964.356 108.21C967.006 106.267 970.539 105.295 974.956 105.295C978.843 105.295 981.934 106.355 984.231 108.475C986.528 110.418 987.941 113.068 988.471 116.425C989.001 119.605 988.383 123.138 986.616 127.025L943.686 225.075C941.743 229.845 939.093 233.378 935.736 235.675C932.556 237.972 928.669 239.12 924.076 239.12Z" fill="#162A4C"/>
<path d="M244.945 239.12C239.645 239.12 235.582 237.707 232.755 234.88C229.928 231.877 228.515 227.637 228.515 222.16V64.75C228.515 59.2733 229.928 55.1217 232.755 52.295C235.582 49.4683 239.645 48.055 244.945 48.055C250.245 48.055 254.308 49.4683 257.135 52.295C260.138 55.1217 261.64 59.2733 261.64 64.75V162.535H262.17L305.895 116.425C309.428 112.892 312.52 110.153 315.17 108.21C317.82 106.267 321.442 105.295 326.035 105.295C330.628 105.295 334.073 106.532 336.37 109.005C338.843 111.302 340.08 114.128 340.08 117.485C340.08 120.842 338.49 124.198 335.31 127.555L289.2 176.315V162.535L339.815 217.125C342.995 220.482 344.408 223.927 344.055 227.46C343.878 230.817 342.465 233.643 339.815 235.94C337.165 238.06 333.808 239.12 329.745 239.12C324.798 239.12 320.823 238.148 317.82 236.205C314.993 234.262 311.813 231.347 308.28 227.46L262.17 179.23H261.64V222.16C261.64 233.467 256.075 239.12 244.945 239.12Z" fill="#005AF5"/>
<rect x="229" y="19" width="765" height="32" rx="14" fill="#005AF5"/>
<path d="M228.52 33C228.52 25.268 234.788 19 242.52 19H247.645C255.377 19 261.645 25.268 261.645 33V89C261.645 96.732 255.377 103 247.645 103H242.52C234.788 103 228.52 96.732 228.52 89V33Z" fill="#005AF5"/>
</g>
<defs>
<clipPath id="clip0_41_3">
<rect width="1000" height="300" fill="white"/>
</clipPath>
</defs>
</svg>
