<svg width="1000" height="1000" viewBox="0 0 1000 1000" fill="none" xmlns="http://www.w3.org/2000/svg">
<path d="M131 900C103.386 900 81 877.614 81 850L81 150C81 122.386 103.386 100 131 100C158.614 100 181 122.386 181 150L181 850C181 877.614 158.614 900 131 900Z" fill="#005AF5"/>
<path d="M581 850C581 822.386 558.614 800 531 800H131C103.386 800 81 822.386 81 850C81 877.614 103.386 900 131 900H531C558.614 900 581 877.614 581 850Z" fill="#005AF5"/>
<path d="M920 650C920 622.386 897.614 600 870 600H470C442.386 600 420 622.386 420 650C420 677.614 442.386 700 470 700H870C897.614 700 920 677.614 920 650Z" fill="#005AF5"/>
<path d="M250 400C250 372.386 272.386 350 300 350H700C727.614 350 750 372.386 750 400C750 427.614 727.614 450 700 450H300C272.386 450 250 427.614 250 400Z" fill="#005AF5"/>
<path d="M250 150C250 122.386 272.386 100 300 100H700C727.614 100 750 122.386 750 150C750 177.614 727.614 200 700 200H300C272.386 200 250 177.614 250 150Z" fill="#005AF5"/>
</svg>
