<svg width="500" height="500" viewBox="0 0 500 500" fill="none" xmlns="http://www.w3.org/2000/svg">
<g clip-path="url(#clip0_821_87)">
<path d="M485.202 85.3897C504.724 65.8676 504.724 34.1637 485.202 14.6416C465.68 -4.88052 433.976 -4.88052 414.454 14.6416L250 179.252L85.3897 14.7977C65.8676 -4.72435 34.1637 -4.72435 14.6416 14.7977C-4.88052 34.3198 -4.88052 66.0237 14.6416 85.5458L179.252 250L14.7978 414.61C-4.72434 434.132 -4.72434 465.836 14.7978 485.358C34.3199 504.881 66.0237 504.881 85.5458 485.358L250 320.748L414.61 485.202C434.132 504.724 465.836 504.724 485.358 485.202C504.881 465.68 504.881 433.976 485.358 414.454L320.748 250L485.202 85.3897Z" fill="#162A4C"/>
</g>
<defs>
<clipPath id="clip0_821_87">
<rect width="500" height="500" fill="white"/>
</clipPath>
</defs>
</svg>
