<svg width="100" height="100" viewBox="0 0 100 100" fill="none" xmlns="http://www.w3.org/2000/svg">
<path d="M29.5674 87H14.2223V37.5951H29.5674V87ZM21.8866 30.8558C16.9808 30.8558 13 26.7924 13 21.8866C13 19.5297 13.9363 17.2694 15.6028 15.6028C17.2694 13.9363 19.5297 13 21.8866 13C24.2435 13 26.5038 13.9363 28.1704 15.6028C29.8369 17.2694 30.7732 19.5297 30.7732 21.8866C30.7732 26.7924 26.7924 30.8558 21.8866 30.8558ZM86.9835 87H71.6714V62.95C71.6714 57.2183 71.5558 49.8679 63.6933 49.8679C55.7152 49.8679 54.4929 56.0951 54.4929 62.5371V87H39.1643V37.5951H53.8817V44.3344H54.0964C56.1446 40.4527 61.1496 36.3562 68.6156 36.3562C84.1424 36.3562 87 46.5808 87 59.8612V87H86.9835Z" fill="#162A4C"/>
</svg>
