<svg width="979" height="218" viewBox="0 0 979 218" fill="none" xmlns="http://www.w3.org/2000/svg">
<path d="M914.077 217.12C909.661 217.12 905.774 215.972 902.417 213.675C899.237 211.378 896.587 207.845 894.467 203.075L852.332 105.29C850.742 101.403 850.124 97.7818 850.477 94.4252C851.007 91.0685 852.597 88.4185 855.247 86.4752C858.074 84.3552 861.872 83.2952 866.642 83.2952C870.706 83.2952 873.974 84.2668 876.447 86.2102C878.921 87.9768 881.129 91.4218 883.072 96.5452L918.847 185.85H910.897L947.732 96.2802C949.676 91.3335 951.884 87.9768 954.357 86.2102C957.007 84.2668 960.541 83.2952 964.957 83.2952C968.844 83.2952 971.936 84.3552 974.232 86.4752C976.529 88.4185 977.942 91.0685 978.472 94.4252C979.002 97.6052 978.384 101.138 976.617 105.025L933.687 203.075C931.744 207.845 929.094 211.378 925.737 213.675C922.557 215.972 918.671 217.12 914.077 217.12Z" fill="#162A4C"/>
<path d="M770.604 217.65C757.178 217.65 745.518 214.912 735.625 209.435C725.731 203.958 718.046 196.185 712.569 186.115C707.093 175.868 704.354 163.855 704.354 150.075C704.354 139.652 705.856 130.377 708.859 122.25C712.039 113.947 716.545 106.88 722.375 101.05C728.205 95.0435 735.183 90.5385 743.31 87.5351C751.436 84.3551 760.534 82.7651 770.604 82.7651C784.031 82.7651 795.691 85.5035 805.584 90.9801C815.478 96.4568 823.163 104.23 828.639 114.3C834.116 124.37 836.854 136.295 836.854 150.075C836.854 160.498 835.264 169.862 832.084 178.165C829.081 186.468 824.664 193.623 818.834 199.63C813.004 205.46 806.026 209.965 797.899 213.145C789.773 216.148 780.674 217.65 770.604 217.65ZM770.604 192.475C777.141 192.475 782.883 190.885 787.829 187.705C792.776 184.525 796.574 179.843 799.224 173.66C802.051 167.3 803.464 159.438 803.464 150.075C803.464 135.942 800.461 125.43 794.454 118.54C788.448 111.473 780.498 107.94 770.604 107.94C764.068 107.94 758.326 109.53 753.38 112.71C748.433 115.713 744.546 120.395 741.719 126.755C739.069 132.938 737.745 140.712 737.745 150.075C737.745 164.032 740.748 174.632 746.755 181.875C752.761 188.942 760.711 192.475 770.604 192.475Z" fill="#162A4C"/>
<path d="M626.765 217.12C621.289 217.12 617.049 215.707 614.045 212.88C611.219 209.877 609.805 205.637 609.805 200.16V99.99C609.805 94.5133 611.219 90.3617 614.045 87.535C616.872 84.7083 620.847 83.295 625.97 83.295C631.094 83.295 635.069 84.7083 637.895 87.535C640.722 90.3617 642.135 94.5133 642.135 99.99V116.685H639.485C641.959 106.085 646.817 98.0467 654.06 92.57C661.304 87.0933 670.932 83.825 682.945 82.765C686.655 82.4117 689.57 83.3833 691.69 85.68C693.987 87.8 695.312 91.1567 695.665 95.75C696.019 100.167 694.959 103.788 692.485 106.615C690.189 109.265 686.655 110.855 681.885 111.385L676.055 111.915C665.279 112.975 657.152 116.332 651.675 121.985C646.199 127.462 643.46 135.235 643.46 145.305V200.16C643.46 205.637 642.047 209.877 639.22 212.88C636.394 215.707 632.242 217.12 626.765 217.12Z" fill="#162A4C"/>
<path d="M516.215 217.65C502.788 217.65 491.128 214.912 481.235 209.435C471.342 203.958 463.657 196.185 458.18 186.115C452.703 175.868 449.965 163.855 449.965 150.075C449.965 139.652 451.467 130.377 454.47 122.25C457.65 113.947 462.155 106.88 467.985 101.05C473.815 95.0435 480.793 90.5385 488.92 87.5351C497.047 84.3551 506.145 82.7651 516.215 82.7651C529.642 82.7651 541.302 85.5035 551.195 90.9801C561.088 96.4568 568.773 104.23 574.25 114.3C579.727 124.37 582.465 136.295 582.465 150.075C582.465 160.498 580.875 169.862 577.695 178.165C574.692 186.468 570.275 193.623 564.445 199.63C558.615 205.46 551.637 209.965 543.51 213.145C535.383 216.148 526.285 217.65 516.215 217.65ZM516.215 192.475C522.752 192.475 528.493 190.885 533.44 187.705C538.387 184.525 542.185 179.843 544.835 173.66C547.662 167.3 549.075 159.438 549.075 150.075C549.075 135.942 546.072 125.43 540.065 118.54C534.058 111.473 526.108 107.94 516.215 107.94C509.678 107.94 503.937 109.53 498.99 112.71C494.043 115.713 490.157 120.395 487.33 126.755C484.68 132.938 483.355 140.712 483.355 150.075C483.355 164.032 486.358 174.632 492.365 181.875C498.372 188.942 506.322 192.475 516.215 192.475Z" fill="#162A4C"/>
<path d="M416.07 217.65C404.586 217.65 394.958 215.707 387.185 211.82C379.588 207.933 373.935 202.28 370.225 194.86C366.515 187.263 364.66 177.9 364.66 166.77V110.325H350.88C346.64 110.325 343.371 109.265 341.075 107.145C338.778 104.848 337.63 101.757 337.63 97.87C337.63 93.8066 338.778 90.715 341.075 88.595C343.371 86.475 346.64 85.415 350.88 85.415H364.66V61.3C364.66 55.8233 366.073 51.6717 368.9 48.845C371.903 46.0183 376.055 44.605 381.355 44.605C386.655 44.605 390.718 46.0183 393.545 48.845C396.371 51.6717 397.785 55.8233 397.785 61.3V85.415H425.875C430.115 85.415 433.383 86.475 435.68 88.595C437.976 90.715 439.125 93.8066 439.125 97.87C439.125 101.757 437.976 104.848 435.68 107.145C433.383 109.265 430.115 110.325 425.875 110.325H397.785V164.915C397.785 173.395 399.64 179.755 403.35 183.995C407.06 188.235 413.066 190.355 421.37 190.355C424.373 190.355 427.023 190.09 429.32 189.56C431.616 189.03 433.648 188.677 435.415 188.5C437.535 188.323 439.301 189.03 440.715 190.62C442.128 192.033 442.835 195.037 442.835 199.63C442.835 203.163 442.216 206.343 440.98 209.17C439.92 211.82 437.888 213.675 434.885 214.735C432.588 215.442 429.585 216.06 425.875 216.59C422.165 217.297 418.896 217.65 416.07 217.65Z" fill="#162A4C"/>
<path d="M233 0C225.268 0 219 6.29342 219 14.0567L219 200.971C219 206.47 219.928 210.728 222.755 213.743C225.582 216.581 229.645 218 234.945 218C246.075 218 252 212.163 252 200.811L251.999 157.636L298.28 206.293C301.813 210.196 304.993 213.122 307.82 215.073C310.823 217.024 314.798 218 319.745 218C323.809 218 327.165 216.936 329.815 214.807C332.465 212.501 333.879 209.663 334.055 206.293C334.409 202.745 332.995 199.286 329.815 195.916L285.999 148.098L325.31 105.983C328.49 102.612 330.08 99.2426 330.08 95.8719C330.08 92.5017 328.844 89.6635 326.37 87.3576C324.074 84.8742 320.629 83.6325 316.035 83.6325C311.442 83.6325 307.82 84.6081 305.17 86.5593C302.52 88.5106 299.428 91.26 295.895 94.8076L251.999 141.571V32.1296L965 32.1297C972.732 32.1297 979 25.8363 979 18.073V14.0567C979 6.29342 972.732 0 965 0H233Z" fill="#005AF5"/>
<path d="M167.402 216.855C162.102 216.855 158.039 215.265 155.212 212.085C152.386 208.905 150.972 204.488 150.972 198.835V101.58C150.972 95.75 152.386 91.3334 155.212 88.3301C158.039 85.1501 162.102 83.5601 167.402 83.5601C172.702 83.5601 176.766 85.1501 179.592 88.3301C182.596 91.3334 184.097 95.75 184.097 101.58V198.835C184.097 204.488 182.684 208.905 179.857 212.085C177.031 215.265 172.879 216.855 167.402 216.855ZM167.402 58.915C161.219 58.915 156.361 57.4134 152.827 54.4101C149.471 51.2301 147.792 46.9017 147.792 41.4251C147.792 35.7717 149.471 31.4434 152.827 28.44C156.361 25.4367 161.219 23.9351 167.402 23.9351C173.762 23.9351 178.621 25.4367 181.977 28.44C185.334 31.4434 187.012 35.7717 187.012 41.4251C187.012 46.9017 185.334 51.2301 181.977 54.4101C178.621 57.4134 173.762 58.915 167.402 58.915Z" fill="#162A4C"/>
<path d="M63.6964 217.12C59.2797 217.12 55.393 215.972 52.0364 213.675C48.8564 211.378 46.2064 207.845 44.0864 203.075L1.95136 105.29C0.361364 101.403 -0.25697 97.7818 0.0963636 94.4252C0.626363 91.0685 2.21636 88.4185 4.86636 86.4752C7.69303 84.3552 11.4914 83.2952 16.2614 83.2952C20.3247 83.2952 23.593 84.2668 26.0664 86.2102C28.5397 87.9768 30.748 91.4218 32.6914 96.5452L68.4664 185.85H60.5164L97.3514 96.2802C99.2947 91.3335 101.503 87.9768 103.976 86.2102C106.626 84.2668 110.16 83.2952 114.576 83.2952C118.463 83.2952 121.555 84.3552 123.851 86.4752C126.148 88.4185 127.561 91.0685 128.091 94.4252C128.621 97.6052 128.003 101.138 126.236 105.025L83.3064 203.075C81.363 207.845 78.713 211.378 75.3564 213.675C72.1764 215.972 68.2897 217.12 63.6964 217.12Z" fill="#162A4C"/>
</svg>
