<svg width="500" height="500" viewBox="0 0 500 500" fill="none" xmlns="http://www.w3.org/2000/svg">
<path d="M0 71.7143C0 51.9598 15.9598 36 35.7143 36H464.286C484.04 36 500 51.9598 500 71.7143C500 91.4688 484.04 107.429 464.286 107.429H35.7143C15.9598 107.429 0 91.4688 0 71.7143ZM0 250.286C0 230.531 15.9598 214.571 35.7143 214.571H464.286C484.04 214.571 500 230.531 500 250.286C500 270.04 484.04 286 464.286 286H35.7143C15.9598 286 0 270.04 0 250.286ZM500 428.857C500 448.612 484.04 464.571 464.286 464.571H35.7143C15.9598 464.571 0 448.612 0 428.857C0 409.103 15.9598 393.143 35.7143 393.143H464.286C484.04 393.143 500 409.103 500 428.857Z" fill="#162A4C"/>
</svg>
