<svg width="100" height="100" viewBox="0 0 100 100" fill="none" xmlns="http://www.w3.org/2000/svg">
<path d="M24 26.8461C24 19.2004 30.153 13 37.7403 13H61.3197C68.907 13 75.06 19.2004 75.06 26.8461C75.06 31.6879 72.5931 35.9516 68.8496 38.423C72.5931 40.8945 75.06 45.1582 75.06 50C75.06 57.6457 68.907 63.8461 61.3197 63.8461H61.0185C57.4615 63.8461 54.2201 62.4875 51.7818 60.2473V73.0094C51.7818 80.7563 45.471 87 37.812 87C30.2391 87 24 80.8141 24 73.1539C24 68.3121 26.4669 64.0484 30.196 61.577C26.4669 59.1055 24 54.8418 24 50C24 45.1582 26.4669 40.8945 30.196 38.423C26.4669 35.9516 24 31.6879 24 26.8461ZM47.2782 40.6922H37.7403C32.6343 40.6922 28.5036 44.8547 28.5036 50C28.5036 55.1164 32.6056 59.2789 37.6829 59.3078C37.6973 59.3078 37.726 59.3078 37.7403 59.3078H47.2782V40.6922ZM51.7818 50C51.7818 55.1453 55.9125 59.3078 61.0185 59.3078H61.3197C66.4114 59.3078 70.5564 55.1453 70.5564 50C70.5564 44.8547 66.4114 40.6922 61.3197 40.6922H61.0185C55.9125 40.6922 51.7818 44.8547 51.7818 50ZM37.7403 63.8461C37.726 63.8461 37.6973 63.8461 37.6829 63.8461C32.6056 63.875 28.5036 68.0375 28.5036 73.1539C28.5036 78.2848 32.6917 82.4617 37.812 82.4617C43.0184 82.4617 47.2782 78.2125 47.2782 73.0094V63.8461H37.7403ZM37.7403 17.5383C32.6343 17.5383 28.5036 21.7008 28.5036 26.8461C28.5036 31.9914 32.6343 36.1539 37.7403 36.1539H47.2782V17.5383H37.7403ZM51.7818 36.1539H61.3197C66.4114 36.1539 70.5564 31.9914 70.5564 26.8461C70.5564 21.7008 66.4114 17.5383 61.3197 17.5383H51.7818V36.1539Z" fill="#162A4C"/>
</svg>
